<svg xmlns="http://www.w3.org/2000/svg" viewBox="1.57 -10.65 168.42000000000002 13.65">
  <path d="M1.57-0.01C2.19 0.01 3.46 0.04 4.39 0.04C6.57 0.04 8.21-0.87 8.21-3C8.21-4.44 7.33-5.28 6.03-5.49L6.03-5.52C7.04-5.85 7.83-6.63 7.83-7.95C7.83-9.40 6.96-10.54 4.46-10.54C3.48-10.54 2.16-10.50 1.57-10.48ZM4.54-4.79C6.06-4.79 6.93-4.18 6.93-3.07C6.93-1.78 6.01-1.16 4.47-1.16C3.87-1.16 3.19-1.19 2.85-1.21L2.85-4.79ZM4.42-9.34C5.82-9.34 6.55-8.76 6.55-7.67C6.55-6.52 5.64-5.91 4.53-5.91L2.85-5.91L2.85-9.30C3.23-9.31 3.87-9.34 4.42-9.34ZM10.33 0L11.53 0L11.53-4.79C11.79-5.28 12.16-5.75 12.94-5.75C13.35-5.75 13.53-5.68 13.86-5.49L14.28-6.61C14.05-6.78 13.79-6.87 13.23-6.87C12.38-6.87 11.88-6.46 11.53-5.96L11.53-6.75L10.33-6.75ZM15.76 0L16.96 0L16.96-6.75L15.76-6.75ZM15.61-9.29C15.61-8.79 15.97-8.50 16.39-8.50C16.77-8.50 17.13-8.79 17.13-9.29C17.13-9.72 16.77-10.00 16.39-10.00C15.97-10.00 15.61-9.72 15.61-9.29ZM19.30-2.56C19.30-0.84 19.91 0.12 21.42 0.12C22.17 0.12 22.79-0.15 23.14-0.45L22.77-1.38C22.53-1.20 22.17-1.00 21.70-1.00C20.85-1.00 20.50-1.62 20.50-2.69L20.50-5.63L22.98-5.63L22.98-6.75L20.50-6.75L20.50-8.63L19.30-8.63ZM25.08 0L26.28 0L26.28-6.75L25.08-6.75ZM24.93-9.29C24.93-8.79 25.29-8.50 25.71-8.50C26.09-8.50 26.45-8.79 26.45-9.29C26.45-9.72 26.09-10.00 25.71-10.00C25.29-10.00 24.93-9.72 24.93-9.29ZM32.19-1.83C32.19-1.21 31.62-0.90 30.99-0.90C30.32-0.90 29.43-1.30 29.04-1.75L28.37-0.90C28.68-0.42 29.76 0.15 30.86 0.15C32.20 0.15 33.47-0.46 33.47-1.89C33.47-4.26 29.82-3.58 29.82-5.01C29.82-5.46 30.23-5.85 30.90-5.85C31.61-5.85 32.19-5.55 32.59-5.19L33.16-6.10C32.76-6.50 31.95-6.90 30.84-6.90C29.51-6.90 28.55-6.18 28.55-5.00C28.55-2.52 32.19-3.19 32.19-1.83ZM35.22 0L36.42 0L36.42-4.89C36.84-5.37 37.59-5.75 38.34-5.75C39.59-5.75 40.23-5.05 40.23-3.71L40.23 0L41.43 0L41.43-3.87C41.43-5.98 40.38-6.87 38.63-6.87C37.77-6.87 36.91-6.48 36.42-5.97L36.42-10.50L35.22-10.50ZM48.60 0L48.60-4.04C49.13-3.99 49.76-3.97 50.17-3.97C52.74-3.97 53.95-5.56 53.95-7.27C53.95-8.91 53.07-10.53 50.07-10.53C49.41-10.53 47.91-10.50 47.33-10.50L47.33 0ZM50.19-9.33C51.85-9.33 52.60-8.54 52.60-7.29C52.60-5.97 51.67-5.17 50.13-5.17C49.60-5.17 49.11-5.21 48.60-5.25L48.60-9.30C49.09-9.31 49.77-9.33 50.19-9.33ZM55.65-5.33C56.19-5.61 56.69-5.82 57.51-5.82C58.84-5.82 59.04-4.95 59.04-3.69C58.59-4.02 57.88-4.13 57.36-4.13C55.91-4.13 54.81-3.36 54.81-1.98C54.81-0.67 55.65 0.10 56.88 0.10C57.99 0.10 58.63-0.36 59.04-0.87L59.04 0L60.18 0L60.18-4.14C60.18-5.89 59.51-6.90 57.59-6.90C56.74-6.90 55.94-6.66 55.34-6.29ZM57.30-0.97C56.52-0.97 56.09-1.40 56.09-2.04C56.09-2.82 56.80-3.15 57.52-3.15C58.11-3.15 58.62-3 59.04-2.70L59.04-1.84C58.70-1.44 58.19-0.97 57.30-0.97ZM62.19 0L63.39 0L63.39-4.79C63.64-5.28 64.02-5.75 64.80-5.75C65.20-5.75 65.39-5.68 65.72-5.49L66.14-6.61C65.91-6.78 65.64-6.87 65.08-6.87C64.23-6.87 63.73-6.46 63.39-5.96L63.39-6.75L62.19-6.75ZM67.29-1.80C67.29-0.49 67.80 0.12 68.82 0.12C69.52 0.12 70.05-0.10 70.41-0.39L70.14-1.30C69.91-1.16 69.61-1.00 69.28-1.00C68.71-1.00 68.49-1.43 68.49-2.34L68.49-10.50L67.29-10.50ZM71.97 0L73.17 0L73.17-6.75L71.97-6.75ZM71.82-9.29C71.82-8.79 72.18-8.50 72.60-8.50C72.97-8.50 73.33-8.79 73.33-9.29C73.33-9.72 72.97-10.00 72.60-10.00C72.18-10.00 71.82-9.72 71.82-9.29ZM76.02-5.33C76.56-5.61 77.05-5.82 77.88-5.82C79.21-5.82 79.41-4.95 79.41-3.69C78.96-4.02 78.25-4.13 77.73-4.13C76.27-4.13 75.18-3.36 75.18-1.98C75.18-0.67 76.02 0.10 77.25 0.10C78.36 0.10 79.00-0.36 79.41-0.87L79.41 0L80.55 0L80.55-4.14C80.55-5.89 79.87-6.90 77.95-6.90C77.11-6.90 76.30-6.66 75.70-6.29ZM77.67-0.97C76.89-0.97 76.45-1.40 76.45-2.04C76.45-2.82 77.17-3.15 77.89-3.15C78.48-3.15 78.99-3 79.41-2.70L79.41-1.84C79.06-1.44 78.55-0.97 77.67-0.97ZM92.58-4.42C92.58-6.27 91.65-6.87 90.40-6.87C89.38-6.87 88.51-6.39 88.03-5.70C87.78-6.40 87.04-6.87 85.99-6.87C85.12-6.87 84.25-6.48 83.76-5.89L83.76-6.75L82.56-6.75L82.56 0L83.76 0L83.76-4.83C84.10-5.33 84.75-5.75 85.53-5.75C86.47-5.75 86.97-5.17 86.97-4.35L86.97 0L88.17 0L88.17-4.29C88.17-4.44 88.17-4.65 88.15-4.77C88.47-5.33 89.11-5.75 89.92-5.75C90.90-5.75 91.38-5.21 91.38-4.09L91.38 0L92.58 0ZM99.93-1.68C99.49-1.27 98.73-0.97 97.86-0.97C96.54-0.97 95.61-1.72 95.50-3L100.69-3C100.74-3.21 100.77-3.48 100.77-3.81C100.77-5.67 99.37-6.90 97.63-6.90C95.41-6.90 94.15-5.34 94.15-3.38C94.15-1.24 95.58 0.15 97.77 0.15C98.67 0.15 99.64-0.14 100.30-0.73ZM97.57-5.77C98.74-5.77 99.46-5.08 99.52-3.97L95.43-3.97C95.56-5.01 96.34-5.77 97.57-5.77ZM102.40 0L103.60 0L103.60-4.88C104.04-5.37 104.74-5.75 105.51-5.75C106.77-5.75 107.41-5.08 107.41-3.67L107.41 0L108.61 0L108.61-3.90C108.61-6.01 107.56-6.87 105.81-6.87C104.92-6.87 104.07-6.43 103.60-5.92L103.60-6.75L102.40-6.75ZM110.49-2.56C110.49-0.84 111.09 0.12 112.60 0.12C113.35 0.12 113.97-0.15 114.33-0.45L113.95-1.38C113.71-1.20 113.35-1.00 112.89-1.00C112.03-1.00 111.69-1.62 111.69-2.69L111.69-5.63L114.16-5.63L114.16-6.75L111.69-6.75L111.69-8.63L110.49-8.63ZM116.29-5.33C116.83-5.61 117.33-5.82 118.15-5.82C119.49-5.82 119.68-4.95 119.68-3.69C119.23-4.02 118.53-4.13 118.00-4.13C116.55-4.13 115.45-3.36 115.45-1.98C115.45-0.67 116.29 0.10 117.52 0.10C118.63 0.10 119.28-0.36 119.68-0.87L119.68 0L120.82 0L120.82-4.14C120.82-5.89 120.15-6.90 118.23-6.90C117.39-6.90 116.58-6.66 115.98-6.29ZM117.94-0.97C117.16-0.97 116.73-1.40 116.73-2.04C116.73-2.82 117.45-3.15 118.17-3.15C118.75-3.15 119.26-3 119.68-2.70L119.68-1.84C119.34-1.44 118.83-0.97 117.94-0.97ZM122.83 0L124.03 0L124.03-4.79C124.29-5.28 124.66-5.75 125.44-5.75C125.85-5.75 126.03-5.68 126.36-5.49L126.78-6.61C126.55-6.78 126.28-6.87 125.73-6.87C124.88-6.87 124.38-6.46 124.03-5.96L124.03-6.75L122.83-6.75ZM134.07-6.75L132.70-6.75L131.14-2.48C131.02-2.11 130.92-1.77 130.83-1.44C130.69-1.78 130.57-2.11 130.42-2.46L128.44-6.75L127.00-6.75L130.24 0L130.09 0.36C129.64 1.44 129.22 1.89 128.66 1.89C128.38 1.89 128.13 1.77 127.90 1.67L127.51 2.58C127.87 2.82 128.28 3 128.79 3C129.75 3 130.38 2.42 131.37 0ZM143.73-2.69C143.73-1.62 142.77-1.05 141.68-1.05C140.79-1.05 139.69-1.48 139.08-2.29L138.34-1.43C138.87-0.43 140.37 0.15 141.66 0.15C143.56 0.15 145.08-0.97 145.08-2.70C145.08-6.29 139.95-5.31 139.95-7.90C139.95-8.83 140.67-9.45 141.84-9.45C142.75-9.45 143.41-9.15 143.97-8.59L144.66-9.55C144.06-10.21 142.98-10.65 141.76-10.65C139.77-10.65 138.60-9.42 138.60-7.90C138.60-4.42 143.73-5.25 143.73-2.69ZM146.76-2.56C146.76-0.84 147.36 0.12 148.87 0.12C149.62 0.12 150.24-0.15 150.60-0.45L150.22-1.38C149.98-1.20 149.62-1.00 149.16-1.00C148.30-1.00 147.96-1.62 147.96-2.69L147.96-5.63L150.43-5.63L150.43-6.75L147.96-6.75L147.96-8.63L146.76-8.63ZM158.25-6.75L156.88-6.75L155.32-2.48C155.20-2.11 155.10-1.77 155.01-1.44C154.87-1.78 154.75-2.11 154.60-2.46L152.62-6.75L151.18-6.75L154.42 0L154.27 0.36C153.82 1.44 153.40 1.89 152.83 1.89C152.56 1.89 152.31 1.77 152.08 1.67L151.69 2.58C152.05 2.82 152.46 3 152.97 3C153.93 3 154.56 2.42 155.55 0ZM159.48-1.80C159.48-0.49 159.99 0.12 161.01 0.12C161.71 0.12 162.24-0.10 162.60-0.39L162.33-1.30C162.10-1.16 161.80-1.00 161.47-1.00C160.90-1.00 160.68-1.43 160.68-2.34L160.68-10.50L159.48-10.50ZM169.15-1.68C168.72-1.27 167.95-0.97 167.08-0.97C165.76-0.97 164.83-1.72 164.73-3L169.92-3C169.96-3.21 169.99-3.48 169.99-3.81C169.99-5.67 168.60-6.90 166.86-6.90C164.64-6.90 163.38-5.34 163.38-3.38C163.38-1.24 164.80 0.15 166.99 0.15C167.89 0.15 168.87-0.14 169.53-0.73ZM166.80-5.77C167.97-5.77 168.69-5.08 168.75-3.97L164.65-3.97C164.79-5.01 165.57-5.77 166.80-5.77Z" fill="#000000"/>
</svg>