<svg xmlns="http://www.w3.org/2000/svg" viewBox="4.64 -67.41 219.56 82.08">
  <path d="M 24.55 -47.42 L 24.55 -47.42 Q 24.55 -48.87 25.57 -49.7 Q 26.6 -50.54 27.44 -51.68 L 27.44 -51.68 Q 27.97 -52.44 28.96 -53.31 Q 29.94 -54.19 31.05 -54.87 Q 32.15 -55.56 33.21 -56.01 Q 34.28 -56.47 35.11 -56.47 L 35.11 -56.47 Q 37.16 -56.47 38.42 -55.78 Q 39.67 -55.1 40.36 -54.26 Q 41.04 -53.43 41.31 -52.71 Q 41.57 -51.98 41.8 -51.91 L 41.8 -51.91 Q 42.48 -51.83 42.86 -51.26 Q 43.24 -50.69 43.47 -49.93 Q 43.7 -49.17 43.85 -48.34 Q 44 -47.5 44.16 -46.82 L 44.16 -46.82 Q 44.31 -46.21 44.54 -45.87 Q 44.76 -45.52 44.95 -45.37 Q 45.14 -45.22 45.3 -45.07 Q 45.45 -44.92 45.45 -44.69 L 45.45 -44.69 Q 45.45 -44.31 45.33 -43.97 Q 45.22 -43.62 45.07 -43.24 L 45.07 -43.24 Q 45.07 -42.41 45.41 -42.14 Q 45.75 -41.88 45.75 -41.42 L 45.75 -41.42 Q 45.75 -41.27 45.68 -41.15 Q 45.6 -41.04 45.6 -40.96 L 45.6 -40.96 Q 45.6 -40.58 45.79 -40.24 Q 45.98 -39.9 45.98 -39.52 L 45.98 -39.52 Q 45.98 -37.77 45.6 -36.18 Q 45.22 -34.58 45.22 -32.83 L 45.22 -32.83 Q 45.22 -32.22 44.65 -31.16 Q 44.08 -30.1 44.08 -29.11 L 44.08 -29.11 Q 44.08 -28.5 44.38 -28.16 Q 44.69 -27.82 45.14 -27.36 L 45.14 -27.36 Q 44.76 -26.6 44.35 -25.92 Q 43.93 -25.23 43.09 -24.78 L 43.09 -24.78 Q 42.94 -24.93 42.98 -25.08 Q 43.02 -25.23 42.79 -25.23 L 42.79 -25.23 Q 42.64 -25.23 42.64 -25.08 L 42.64 -25.08 Q 42.64 -24.93 42.83 -24.93 Q 43.02 -24.93 43.17 -24.85 L 43.17 -24.85 Q 43.09 -24.24 43.02 -23.71 Q 42.94 -23.18 42.94 -22.57 L 42.94 -22.57 Q 42.79 -22.04 42.33 -22 Q 41.88 -21.96 41.88 -21.58 L 41.88 -21.58 Q 41.88 -21.43 41.91 -21.17 Q 41.95 -20.9 41.95 -20.6 L 41.95 -20.6 Q 41.95 -20.29 41.5 -20.14 L 41.5 -20.14 Q 40.66 -20.14 40.09 -19.08 Q 39.52 -18.01 38.99 -17.18 L 38.99 -17.18 L 38.99 -16.11 Q 38.99 -15.43 38.91 -14.78 Q 38.84 -14.14 38.46 -13.98 L 38.46 -13.98 L 38.53 -13.91 Q 38.38 -14.14 38.38 -14.48 Q 38.38 -14.82 38.23 -15.2 L 38.23 -15.2 Q 38.15 -15.2 38.08 -15.16 Q 38 -15.12 37.85 -15.12 L 37.85 -15.12 Q 37.77 -15.12 37.77 -15.16 Q 37.77 -15.2 37.7 -15.2 L 37.7 -15.2 Q 37.47 -15.2 37.01 -14.86 Q 36.56 -14.52 36.1 -13.91 Q 35.64 -13.3 35.3 -12.5 Q 34.96 -11.7 34.96 -10.79 L 34.96 -10.79 Q 35.04 -10.64 35.04 -10.26 L 35.04 -10.26 Q 35.04 -9.8 34.66 -9.31 Q 34.28 -8.82 34.28 -8.21 L 34.28 -8.21 Q 34.28 -7.75 33.9 -7.56 Q 33.52 -7.37 33.1 -7.26 Q 32.68 -7.14 32.3 -6.92 Q 31.92 -6.69 31.92 -6.23 L 31.92 -6.23 Q 31.92 -6 32 -5.7 Q 32.07 -5.4 32.07 -5.09 L 32.07 -5.09 Q 32.07 -4.33 31.58 -4.1 Q 31.08 -3.88 30.51 -3.8 Q 29.94 -3.72 29.45 -3.61 Q 28.96 -3.5 28.96 -2.89 L 28.96 -2.89 Q 28.96 -2.66 29.03 -2.47 Q 29.11 -2.28 29.11 -1.9 L 29.11 -1.9 Q 29.11 -1.6 28.73 -1.52 L 28.73 -1.52 Q 28.04 -1.44 27.47 -1.1 Q 26.9 -0.76 26.26 -0.34 Q 25.61 0.08 24.81 0.38 Q 24.02 0.68 22.95 0.68 L 22.95 0.68 Q 22.72 0.68 22.27 0.53 L 22.27 0.53 Q 21.89 0.61 21.2 0.61 L 21.2 0.61 Q 19.84 0.61 18.54 -0.08 Q 17.25 -0.76 15.81 -1.52 L 15.81 -1.52 Q 15.35 -0.68 14.78 0.38 Q 14.21 1.44 13.6 2.47 Q 13 3.5 12.39 4.18 Q 11.78 4.86 11.25 4.86 L 11.25 4.86 Q 10.87 4.86 10.68 4.71 Q 10.49 4.56 10.18 4.56 L 10.18 4.56 Q 9.58 4.56 8.89 4.79 Q 8.21 5.02 7.6 5.02 L 7.6 5.02 Q 6.61 5.02 6.08 3.65 Q 5.55 2.28 5.28 0.53 Q 5.02 -1.22 4.94 -2.85 Q 4.86 -4.48 4.86 -5.02 L 4.86 -5.02 Q 4.86 -5.55 5.21 -6.19 Q 5.55 -6.84 5.55 -7.52 L 5.55 -7.52 Q 5.55 -8.44 5.09 -9.31 Q 4.64 -10.18 4.64 -11.1 L 4.64 -11.1 Q 4.64 -12.01 4.67 -13.03 Q 4.71 -14.06 5.24 -14.9 L 5.24 -14.9 Q 5.24 -15.05 5.21 -15.12 Q 5.17 -15.2 5.17 -15.35 L 5.17 -15.35 Q 5.17 -15.88 5.51 -16.19 Q 5.85 -16.49 5.85 -17.02 L 5.85 -17.02 Q 5.85 -17.4 5.66 -17.71 Q 5.47 -18.01 5.47 -18.39 L 5.47 -18.39 Q 5.47 -18.7 5.59 -19 Q 5.7 -19.3 5.7 -19.61 L 5.7 -19.61 Q 5.7 -19.99 5.62 -20.29 Q 5.55 -20.6 5.55 -20.75 L 5.55 -20.75 Q 5.7 -21.43 5.74 -22.12 Q 5.78 -22.8 5.78 -23.41 L 5.78 -23.41 Q 5.78 -24.7 5.93 -25.42 Q 6.08 -26.14 6.31 -26.6 Q 6.54 -27.06 6.69 -27.4 Q 6.84 -27.74 6.84 -28.27 L 6.84 -28.27 Q 6.84 -28.42 6.73 -28.84 Q 6.61 -29.26 6.46 -29.68 Q 6.31 -30.1 6.19 -30.48 Q 6.08 -30.86 6.08 -30.93 L 6.08 -30.93 Q 6.08 -31.24 6.38 -32.34 Q 6.69 -33.44 6.84 -34.12 L 6.84 -34.12 Q 6.76 -34.35 6.76 -34.73 L 6.76 -34.73 Q 6.76 -35.8 7.26 -36.78 Q 7.75 -37.77 7.75 -38.61 L 7.75 -38.61 Q 7.75 -39.22 7.37 -40.05 Q 6.99 -40.89 6.99 -41.72 L 6.99 -41.72 Q 6.99 -42.41 7.07 -43.36 Q 7.14 -44.31 7.14 -45.14 L 7.14 -45.14 Q 7.14 -46.21 6.76 -47.2 Q 6.38 -48.18 6.38 -49.1 L 6.38 -49.1 Q 6.38 -50.16 7.14 -50.54 Q 7.9 -50.92 8.97 -50.92 L 8.97 -50.92 Q 10.87 -50.92 12.24 -49.97 Q 13.6 -49.02 14.4 -47.54 Q 15.2 -46.06 15.58 -44.31 Q 15.96 -42.56 15.96 -40.89 L 15.96 -40.89 Q 15.96 -39.82 15.28 -38.68 Q 14.59 -37.54 14.59 -36.63 L 14.59 -36.63 Q 14.59 -36.33 14.74 -35.99 Q 14.9 -35.64 14.9 -35.26 L 14.9 -35.26 Q 14.9 -34.5 14.55 -33.71 Q 14.21 -32.91 13.83 -32 Q 13.45 -31.08 13.11 -29.94 Q 12.77 -28.8 12.77 -27.44 L 12.77 -27.44 Q 12.77 -26.6 13.07 -25.46 Q 13.38 -24.32 13.53 -23.26 L 13.53 -23.26 Q 13.53 -22.88 13.15 -22.61 Q 12.77 -22.34 12.77 -21.96 L 12.77 -21.96 Q 12.77 -21.58 13.15 -21.47 Q 13.53 -21.36 14.06 -21.36 L 14.06 -21.36 Q 14.44 -21.36 14.9 -21.39 Q 15.35 -21.43 15.35 -21.66 L 15.35 -21.66 Q 15.35 -21.81 14.97 -22.08 Q 14.59 -22.34 14.59 -22.5 L 14.59 -22.5 Q 14.59 -22.72 15.09 -22.88 Q 15.58 -23.03 15.58 -23.33 L 15.58 -23.33 Q 15.2 -23.94 15.16 -24.93 Q 15.12 -25.92 15.12 -26.22 L 15.12 -26.22 Q 15.12 -27.21 15.88 -27.78 Q 16.64 -28.35 16.64 -28.96 L 16.64 -28.96 Q 16.64 -29.11 16.61 -29.3 Q 16.57 -29.49 16.57 -29.64 L 16.57 -29.64 L 16.57 -29.56 Q 16.8 -29.87 17.02 -30.17 Q 17.25 -30.48 17.25 -30.93 L 17.25 -30.93 Q 17.25 -31.08 17.21 -31.24 Q 17.18 -31.39 17.18 -31.54 L 17.18 -31.54 Q 17.18 -32 17.56 -32.38 L 17.56 -32.38 Q 17.86 -32 18.01 -31.73 Q 18.16 -31.46 18.7 -31.46 L 18.7 -31.46 Q 18.62 -31.24 18.62 -30.93 L 18.62 -30.93 Q 18.62 -31.08 18.66 -31.16 Q 18.7 -31.24 18.7 -31.39 L 18.7 -31.39 Q 18.47 -31.84 18.47 -32.3 L 18.47 -32.3 Q 18.47 -32.83 18.81 -33.44 Q 19.15 -34.05 19.15 -34.81 L 19.15 -34.81 Q 19.15 -35.26 19 -35.76 Q 18.85 -36.25 18.85 -36.78 L 18.85 -36.78 Q 18.85 -38 19.68 -39.22 L 19.68 -39.22 L 19.61 -39.14 Q 19.61 -38.84 19.61 -38.53 Q 19.61 -38.23 19.53 -37.85 L 19.53 -37.85 Q 19.53 -37.16 20.03 -36.9 Q 20.52 -36.63 20.52 -36.33 L 20.52 -36.33 Q 20.52 -36.02 20.33 -35.57 Q 20.14 -35.11 20.14 -34.73 L 20.14 -34.73 Q 20.14 -33.82 20.44 -32.87 Q 20.75 -31.92 20.75 -31.08 L 20.75 -31.08 Q 20.75 -30.17 19.84 -29.64 L 19.84 -29.64 Q 18.92 -29.11 18.77 -28.46 Q 18.62 -27.82 18.62 -27.13 L 18.62 -27.13 Q 18.62 -26.75 18.7 -26.45 Q 18.77 -26.14 18.77 -25.76 L 18.77 -25.76 Q 18.77 -25.31 18.62 -24.81 Q 18.47 -24.32 18.47 -23.79 L 18.47 -23.79 Q 18.47 -22.65 18.7 -21.62 Q 18.92 -20.6 19 -19.61 L 19 -19.61 Q 19 -19.23 18.39 -19.08 L 18.39 -19.08 Q 18.09 -19.08 18.09 -19.19 Q 18.09 -19.3 17.86 -19.61 L 17.86 -19.61 L 18.01 -19.76 L 17.94 -19.53 Q 17.78 -19.61 17.33 -19.61 L 17.33 -19.61 Q 17.18 -19.84 17.18 -19.84 L 17.18 -19.84 Q 17.18 -19.68 17.4 -19.68 L 17.4 -19.68 Q 17.25 -19.08 17.25 -18.77 L 17.25 -18.77 Q 17.25 -18.16 17.56 -17.63 Q 17.86 -17.1 17.86 -16.42 L 17.86 -16.42 Q 17.86 -15.96 17.37 -16 Q 16.87 -16.04 16.57 -15.88 L 16.57 -15.88 Q 16.57 -16.19 16.61 -16.49 Q 16.64 -16.8 16.64 -17.18 L 16.64 -17.18 Q 16.64 -17.4 16.49 -17.4 L 16.49 -17.4 Q 16.34 -17.4 16.34 -16.95 L 16.34 -16.95 Q 16.34 -16.34 16.57 -15.62 Q 16.8 -14.9 16.8 -14.21 L 16.8 -14.21 Q 16.8 -13.68 16.53 -13.15 Q 16.26 -12.62 16.26 -12.08 L 16.26 -12.08 Q 16.26 -11.93 16.34 -11.7 Q 16.42 -11.48 16.42 -11.25 L 16.42 -11.25 Q 16.42 -10.64 16.04 -10.22 Q 15.66 -9.8 15.66 -9.2 L 15.66 -9.2 Q 15.66 -8.21 15.96 -7.79 Q 16.26 -7.37 16.64 -7.22 Q 17.02 -7.07 17.44 -6.92 Q 17.86 -6.76 18.16 -6.31 L 18.16 -6.31 Q 19.15 -4.79 19.87 -4.22 Q 20.6 -3.65 22.19 -3.65 L 22.19 -3.65 Q 23.33 -3.65 24.43 -3.72 Q 25.54 -3.8 26.68 -4.1 L 26.68 -4.1 Q 27.28 -4.26 27.51 -4.86 Q 27.74 -5.47 28.35 -5.93 L 28.35 -5.93 Q 28.65 -6.16 29.22 -6.84 Q 29.79 -7.52 30.32 -8.21 Q 30.86 -8.89 31.31 -9.42 Q 31.77 -9.96 31.92 -9.96 L 31.92 -9.96 Q 32.22 -9.96 32.45 -9.84 Q 32.68 -9.73 33.06 -9.58 L 33.06 -9.58 Q 33.44 -10.18 33.86 -10.72 Q 34.28 -11.25 34.28 -12.01 L 34.28 -12.01 Q 34.28 -12.84 34.77 -13.22 Q 35.26 -13.6 35.26 -14.29 L 35.26 -14.29 Q 35.26 -14.74 35.49 -15.12 Q 35.72 -15.5 36.02 -15.88 Q 36.33 -16.26 36.56 -16.72 Q 36.78 -17.18 36.78 -17.78 L 36.78 -17.78 Q 36.78 -18.01 36.75 -18.24 Q 36.71 -18.47 36.71 -18.7 L 36.71 -18.7 Q 36.71 -19.3 37.2 -19.76 Q 37.7 -20.22 37.7 -20.6 L 37.7 -20.6 Q 37.7 -21.05 37.47 -21.51 Q 37.24 -21.96 37.24 -22.34 L 37.24 -22.34 Q 37.24 -23.18 37.43 -23.79 Q 37.62 -24.4 37.85 -24.97 Q 38.08 -25.54 38.3 -26.14 Q 38.53 -26.75 38.61 -27.44 L 38.61 -27.44 Q 38.61 -28.2 39.1 -28.54 Q 39.6 -28.88 40.24 -29.07 Q 40.89 -29.26 41.38 -29.45 Q 41.88 -29.64 41.88 -30.02 L 41.88 -30.02 Q 41.88 -30.17 41.15 -30.55 Q 40.43 -30.93 39.6 -31.08 L 39.6 -31.08 L 39.67 -31.01 Q 39.98 -31.92 40.05 -32.41 Q 40.13 -32.91 40.2 -33.29 Q 40.28 -33.67 40.39 -33.97 Q 40.51 -34.28 40.81 -34.73 L 40.81 -34.73 Q 40.58 -34.96 40.39 -35.26 Q 40.2 -35.57 40.2 -35.87 L 40.2 -35.87 Q 40.2 -36.48 40.7 -37.09 Q 41.19 -37.7 41.19 -38.3 L 41.19 -38.3 Q 41.19 -38.61 40.66 -39.29 Q 40.13 -39.98 40.13 -41.04 L 40.13 -41.04 Q 40.13 -42.33 39.82 -43.55 L 39.82 -43.55 Q 39.6 -44.31 39.14 -45.79 Q 38.68 -47.27 38 -48.72 Q 37.32 -50.16 36.44 -51.22 Q 35.57 -52.29 34.5 -52.29 L 34.5 -52.29 Q 34.28 -52.29 33.48 -51.98 Q 32.68 -51.68 31.81 -51.22 Q 30.93 -50.77 30.21 -50.31 Q 29.49 -49.86 29.49 -49.55 L 29.49 -49.55 Q 29.49 -49.32 29.56 -49.17 L 29.56 -49.17 Q 29.18 -48.79 28.92 -48.41 Q 28.65 -48.03 28.5 -47.58 L 28.5 -47.58 Q 27.97 -47.5 27.66 -47.35 L 27.66 -47.35 Q 26.9 -47.04 26.9 -46.28 L 26.9 -46.28 Q 26.9 -45.68 26.6 -45.3 Q 26.3 -44.92 25.92 -44.61 Q 25.54 -44.31 25.23 -44.16 Q 24.93 -44 24.93 -43.85 L 24.93 -43.85 Q 24.93 -43.55 25.23 -43.24 Q 25.54 -42.94 25.54 -42.71 L 25.54 -42.71 Q 25.54 -42.48 25.23 -42.45 Q 24.93 -42.41 24.59 -42.41 Q 24.24 -42.41 23.98 -42.33 Q 23.71 -42.26 23.71 -41.95 L 23.71 -41.95 Q 23.71 -41.5 23.94 -40.81 Q 24.17 -40.13 24.17 -39.67 L 24.17 -39.67 Q 24.17 -39.06 23.79 -38.91 L 23.79 -38.91 Q 23.1 -38.53 22.84 -37.85 Q 22.57 -37.16 22.46 -36.52 Q 22.34 -35.87 22.23 -35.38 Q 22.12 -34.88 21.66 -34.88 L 21.66 -34.88 Q 21.28 -34.88 20.9 -35.26 Q 20.52 -35.64 20.29 -35.95 L 20.29 -35.95 Q 20.52 -35.87 20.79 -35.83 Q 21.05 -35.8 21.28 -35.72 L 21.28 -35.72 L 21.2 -35.64 Q 21.28 -35.8 21.28 -36.18 L 21.28 -36.18 Q 21.28 -36.56 21.24 -36.86 Q 21.2 -37.16 21.2 -37.54 L 21.2 -37.54 Q 21.2 -38.53 21.28 -39.52 Q 21.36 -40.51 21.51 -41.5 L 21.51 -41.5 L 21.43 -41.42 Q 21.74 -41.34 22 -41.34 Q 22.27 -41.34 22.5 -41.34 L 22.5 -41.34 Q 22.72 -41.34 22.95 -41.57 L 22.95 -41.57 Q 22.95 -42.1 22.46 -42.22 Q 21.96 -42.33 21.96 -42.94 L 21.96 -42.94 Q 21.96 -44 22.8 -45.37 Q 23.64 -46.74 24.47 -47.42 L 24.47 -47.42 Q 24.47 -47.35 24.55 -47.27 Q 24.62 -47.2 24.62 -47.12 L 24.62 -47.12 Q 24.62 -47.04 24.47 -47.04 L 24.47 -47.04 Q 24.24 -47.04 24.24 -47.12 L 24.24 -47.12 Q 24.24 -47.42 24.55 -47.42 Z M 40.81 -24.7 L 40.81 -24.7 Q 40.96 -25 41.12 -25.16 L 41.12 -25.16 Q 40.81 -25.16 40.81 -25 L 40.81 -25 Q 40.81 -24.93 40.85 -24.85 Q 40.89 -24.78 40.89 -24.7 L 40.89 -24.7 Q 40.81 -24.7 40.74 -24.74 Q 40.66 -24.78 40.58 -24.78 L 40.58 -24.78 Q 40.36 -24.78 40.36 -24.47 L 40.36 -24.47 L 40.51 -24.4 Q 40.66 -24.47 40.7 -24.55 Q 40.74 -24.62 40.81 -24.7 Z M 10.18 -12.46 L 10.18 -12.46 Q 10.49 -12.62 10.75 -12.84 Q 11.02 -13.07 11.02 -13.45 L 11.02 -13.45 Q 11.02 -13.83 10.72 -14.14 L 10.72 -14.14 Q 10.56 -13.98 10.49 -13.91 Q 10.41 -13.83 10.41 -13.6 L 10.41 -13.6 Q 10.41 -13.45 10.45 -13.26 Q 10.49 -13.07 10.49 -12.92 L 10.49 -12.92 Q 10.49 -12.62 10.26 -12.35 Q 10.03 -12.08 10.03 -11.86 L 10.03 -11.86 Q 10.03 -11.7 10.18 -11.7 L 10.18 -11.7 Q 10.49 -11.7 10.49 -11.86 L 10.49 -11.86 Q 10.26 -12.16 10.18 -12.46 Z M 16.64 -25.76 L 16.64 -25.76 Q 16.64 -25.84 16.68 -25.92 Q 16.72 -25.99 16.72 -26.07 L 16.72 -26.07 Q 16.72 -26.14 16.57 -26.45 L 16.57 -26.45 L 16.42 -26.3 L 16.64 -25.84 Q 16.57 -25.61 16.49 -25.42 Q 16.42 -25.23 16.34 -25.08 L 16.34 -25.08 Q 16.34 -24.7 16.87 -24.7 L 16.87 -24.7 Q 17.02 -24.7 17.1 -24.89 Q 17.18 -25.08 17.18 -25.16 L 17.18 -25.16 Q 17.18 -25.61 16.64 -25.76 Z M 38.61 -21.05 L 38.61 -21.05 Q 38.61 -20.37 38.53 -20.06 Q 38.46 -19.76 37.77 -18.62 L 37.77 -18.62 Q 37.77 -18.32 38.08 -18.32 L 38.08 -18.32 Q 38.3 -18.32 38.61 -18.7 Q 38.91 -19.08 39.14 -19.57 Q 39.37 -20.06 39.52 -20.56 Q 39.67 -21.05 39.67 -21.36 L 39.67 -21.36 Q 39.67 -21.58 39.52 -21.81 Q 39.37 -22.04 39.22 -22.04 L 39.22 -22.04 Q 38.99 -21.96 38.76 -21.81 Q 38.53 -21.66 38.53 -21.51 L 38.53 -21.51 Q 38.53 -21.36 38.57 -21.28 Q 38.61 -21.2 38.61 -21.05 Z M 14.06 -15.88 L 14.06 -15.88 Q 14.21 -16.34 14.29 -16.61 Q 14.36 -16.87 14.36 -17.18 L 14.36 -17.18 Q 14.36 -17.63 14.17 -18.2 Q 13.98 -18.77 13.6 -19.84 L 13.6 -19.84 Q 13.3 -19.61 13.3 -18.85 L 13.3 -18.85 Q 13.68 -17.78 13.72 -16.99 Q 13.76 -16.19 14.06 -15.88 Z M 13.07 -15.12 L 13.07 -15.12 Q 13.15 -15.28 13.22 -15.43 Q 13.3 -15.58 13.3 -15.73 L 13.3 -15.73 Q 13.3 -15.96 13.07 -15.96 L 13.07 -15.96 Q 13 -15.88 13 -15.81 L 13 -15.81 Q 12.92 -15.73 12.92 -15.58 L 12.92 -15.58 Q 12.92 -15.43 13.07 -15.12 Z M 12.08 -20.14 L 12.08 -20.14 Q 11.93 -20.29 11.93 -20.37 L 11.93 -20.37 Q 11.78 -20.06 11.78 -19.99 L 11.78 -19.99 Q 11.78 -19.91 11.82 -19.87 Q 11.86 -19.84 11.86 -19.76 L 11.86 -19.76 Q 12.01 -20.06 12.08 -20.14 Z M 40.36 -27.89 L 40.36 -27.89 Q 40.2 -27.97 40.17 -28.04 Q 40.13 -28.12 39.98 -28.12 L 39.98 -28.12 Q 39.75 -28.12 39.75 -27.97 L 39.75 -27.97 Q 39.82 -27.82 39.86 -27.78 Q 39.9 -27.74 39.98 -27.59 L 39.98 -27.59 Q 40.2 -27.82 40.36 -27.89 Z M 42.33 -49.86 L 42.33 -49.86 Q 42.33 -50.16 42.26 -50.16 L 42.26 -50.16 Q 42.18 -50.16 42.1 -50.08 L 42.1 -50.08 Q 42.03 -50.01 42.03 -49.93 L 42.03 -49.93 L 42.18 -49.78 Q 42.18 -49.78 42.33 -49.86 Z M 44.38 -40.51 L 44.38 -40.51 Q 44.23 -40.36 44.23 -40.28 L 44.23 -40.28 L 44.46 -39.82 Q 44.61 -39.98 44.61 -40.05 L 44.61 -40.05 Q 44.61 -40.2 44.61 -40.36 Q 44.61 -40.51 44.38 -40.51 Z M 12.54 -24.32 L 12.31 -23.86 Q 12.39 -23.86 12.43 -23.79 Q 12.46 -23.71 12.54 -23.71 L 12.54 -23.71 Q 12.69 -23.86 12.69 -24.02 L 12.69 -24.02 Q 12.69 -24.17 12.54 -24.32 L 12.54 -24.32 Z M 41.04 -22.12 L 41.04 -21.74 L 41.19 -21.89 Q 41.19 -21.96 41.04 -22.12 L 41.04 -22.12 Z M 26.98 -2.13 L 27.06 -2.2 Q 27.06 -2.2 26.98 -2.36 L 26.98 -2.36 L 26.98 -2.43 Q 26.68 -2.43 26.68 -2.2 L 26.68 -2.2 Q 26.68 -2.05 26.9 -2.05 L 26.9 -2.05 Q 26.9 -2.05 26.98 -2.13 L 26.98 -2.13 Z M 15.96 -19.53 L 16.11 -19.68 Q 16.11 -19.99 15.88 -20.14 L 15.88 -20.14 L 15.73 -19.99 L 15.96 -19.53 Z M 8.59 -18.54 L 8.59 -18.54 Q 8.36 -18.54 8.36 -18.47 L 8.36 -18.47 L 8.51 -18.32 Q 8.51 -18.39 8.55 -18.43 Q 8.59 -18.47 8.59 -18.54 Z M 16.57 -29.64 L 16.57 -29.56 L 16.57 -29.64 Z M 19.68 -39.22 L 19.61 -39.14 Q 19.61 -39.22 19.68 -39.22 L 19.68 -39.22 Z M 38.46 -13.98 L 38.46 -13.98 Q 38.46 -13.53 38.23 -13.53 L 38.23 -13.53 Q 38.15 -13.53 38.15 -13.6 L 38.15 -13.6 Q 38.15 -13.68 38.08 -13.76 L 38.08 -13.76 Q 38.08 -13.98 38.46 -13.98 Z M 37.09 -13.22 L 37.24 -13.07 Q 37.09 -12.92 37.01 -12.92 L 37.01 -12.92 Q 36.86 -12.92 36.86 -13.07 L 36.86 -13.07 Q 36.86 -13.22 37.09 -13.22 L 37.09 -13.22 Z M 21.43 -41.42 L 21.51 -41.5 Q 21.36 -41.42 21.2 -41.42 L 21.2 -41.42 Q 20.98 -41.42 20.98 -41.65 L 20.98 -41.65 Q 20.98 -41.65 21.13 -41.72 L 21.13 -41.72 Q 21.2 -41.65 21.24 -41.57 Q 21.28 -41.5 21.43 -41.42 L 21.43 -41.42 Z M 21.2 -35.64 L 21.28 -35.72 L 21.2 -35.64 Z M 39.67 -31.01 L 39.6 -31.08 Q 39.6 -30.93 39.44 -30.63 L 39.44 -30.63 Q 39.29 -30.93 39.29 -30.93 L 39.29 -30.93 Q 39.29 -31.08 39.44 -31.08 L 39.44 -31.08 Q 39.6 -31.08 39.67 -31.01 L 39.67 -31.01 Z M 54.11 -26.83 L 54.11 -26.83 Q 54.72 -27.51 55.21 -28.27 Q 55.71 -29.03 56.01 -29.94 L 56.01 -29.94 Q 56.24 -30.7 56.81 -31.27 Q 57.38 -31.84 57.99 -32.34 Q 58.6 -32.83 59.09 -33.33 Q 59.58 -33.82 59.81 -34.43 L 59.81 -34.43 Q 60.65 -35.26 61.48 -36.25 Q 62.32 -37.24 63.61 -37.77 L 63.61 -37.77 Q 64.37 -38.08 64.9 -38.68 Q 65.44 -39.29 66.35 -39.29 L 66.35 -39.29 Q 67.79 -39.29 69.62 -38.76 Q 71.44 -38.23 73.04 -37.32 Q 74.63 -36.4 75.7 -35.11 Q 76.76 -33.82 76.76 -32.3 L 76.76 -32.3 Q 76.76 -32.15 76.72 -31.92 Q 76.68 -31.69 76.68 -31.54 L 76.68 -31.54 Q 76.68 -31.16 76.72 -30.82 Q 76.76 -30.48 76.76 -30.1 L 76.76 -30.1 Q 76.76 -28.65 75.7 -27.89 L 75.7 -27.89 Q 75.09 -27.59 74.78 -26.87 Q 74.48 -26.14 74.02 -25.61 L 74.02 -25.61 Q 73.64 -25.23 73.26 -24.85 Q 72.88 -24.47 72.58 -23.86 L 72.58 -23.86 Q 72.28 -23.26 71.36 -22.31 Q 70.45 -21.36 69.16 -20.48 Q 67.87 -19.61 66.31 -18.96 Q 64.75 -18.32 63.16 -18.32 L 63.16 -18.32 Q 62.32 -18.32 61.56 -18.47 Q 60.8 -18.62 59.96 -18.62 L 59.96 -18.62 Q 58.9 -18.62 58.67 -17.4 Q 58.44 -16.19 58.44 -15.28 L 58.44 -15.28 Q 58.44 -13.98 58.52 -12.31 Q 58.6 -10.64 58.9 -9.12 Q 59.2 -7.6 59.77 -6.54 Q 60.34 -5.47 61.41 -5.47 L 61.41 -5.47 Q 62.24 -5.47 63.19 -6 Q 64.14 -6.54 64.75 -7.07 L 64.75 -7.07 Q 67.87 -9.58 70.87 -12.01 Q 73.87 -14.44 76.84 -17.1 L 76.84 -17.1 Q 77.14 -17.4 77.86 -18.13 Q 78.58 -18.85 79.46 -19.61 Q 80.33 -20.37 81.32 -20.94 Q 82.31 -21.51 83.22 -21.51 L 83.22 -21.51 Q 83.6 -21.51 84.02 -21.32 Q 84.44 -21.13 84.44 -20.67 L 84.44 -20.67 Q 84.44 -20.29 84.06 -19.95 Q 83.68 -19.61 83.18 -19.3 Q 82.69 -19 82.19 -18.73 Q 81.7 -18.47 81.4 -18.24 L 81.4 -18.24 Q 80.18 -17.25 79.34 -16.42 L 79.34 -16.42 Q 78.51 -15.66 77.9 -15.01 Q 77.29 -14.36 77.29 -14.06 L 77.29 -14.06 Q 77.29 -13.6 76.99 -12.92 Q 76.68 -12.24 76.08 -12.24 L 76.08 -12.24 Q 75.24 -11.86 74.63 -11.1 Q 74.02 -10.34 73.49 -9.54 Q 72.96 -8.74 72.47 -8.09 Q 71.97 -7.45 71.52 -7.3 L 71.52 -7.3 Q 71.06 -7.14 70 -6.08 Q 68.93 -5.02 67.75 -3.8 Q 66.58 -2.58 65.51 -1.63 Q 64.45 -0.68 63.99 -0.68 L 63.99 -0.68 Q 63.54 -0.68 63.23 -0.91 L 63.23 -0.91 Q 62.85 -0.68 62.51 -0.46 Q 62.17 -0.23 61.79 0 L 61.79 0 Q 59.58 -0.23 57.99 -0.53 Q 56.39 -0.84 55.18 -2.58 L 55.18 -2.58 Q 54.87 -3.27 54.49 -3.5 L 54.49 -3.5 Q 54.04 -3.72 53.62 -4.29 Q 53.2 -4.86 52.9 -5.43 Q 52.59 -6 52.44 -6.5 Q 52.29 -6.99 52.29 -7.07 L 52.29 -7.07 Q 52.29 -7.3 52.36 -7.56 Q 52.44 -7.83 52.44 -8.13 L 52.44 -8.13 Q 52.44 -8.66 52.02 -9.12 Q 51.6 -9.58 51.6 -10.03 L 51.6 -10.03 Q 51.6 -10.18 51.72 -10.41 Q 51.83 -10.64 51.83 -10.87 L 51.83 -10.87 Q 51.83 -11.25 51.68 -11.59 Q 51.53 -11.93 51.53 -12.31 L 51.53 -12.31 Q 51.53 -12.62 51.72 -12.92 Q 51.91 -13.22 51.91 -13.53 L 51.91 -13.53 Q 51.91 -13.91 51.64 -14.36 Q 51.38 -14.82 51.38 -15.28 L 51.38 -15.28 Q 51.38 -15.81 51.38 -16.68 Q 51.38 -17.56 51.45 -18.47 Q 51.53 -19.38 51.72 -20.22 Q 51.91 -21.05 52.29 -21.51 L 52.29 -21.51 Q 53.05 -22.5 53.2 -24.05 Q 53.35 -25.61 54.19 -26.83 L 54.19 -26.83 Q 53.88 -26.37 53.88 -25.99 L 53.88 -25.99 Q 53.88 -25.76 54.04 -25.61 L 54.04 -25.61 Q 54.11 -25.69 54.19 -25.69 Q 54.26 -25.69 54.26 -25.92 L 54.26 -25.92 Q 54.26 -26.22 54.11 -26.83 Z M 61.33 -23.03 L 61.33 -23.03 Q 62.32 -23.18 63.92 -23.67 Q 65.51 -24.17 66.99 -25.04 Q 68.48 -25.92 69.54 -27.25 Q 70.6 -28.58 70.6 -30.4 L 70.6 -30.4 Q 70.6 -31.39 70.26 -32.6 Q 69.92 -33.82 68.78 -33.82 L 68.78 -33.82 Q 66.88 -33.82 65.25 -32.53 Q 63.61 -31.24 62.4 -29.53 Q 61.18 -27.82 60.46 -26.14 Q 59.74 -24.47 59.74 -23.71 L 59.74 -23.71 Q 59.74 -23.33 60.08 -23.26 Q 60.42 -23.18 61.33 -23.03 Z M 91.35 8.36 L 91.35 8.36 Q 90.9 9.27 90.02 9.58 Q 89.15 9.88 88.77 9.88 L 88.77 9.88 Q 88.62 9.88 87.89 9.8 Q 87.17 9.73 86.79 9.35 L 86.79 9.35 Q 83.98 8.51 83.07 6.61 Q 82.16 4.71 82.16 2.05 L 82.16 2.05 Q 82.16 -0.91 82.54 -3.88 Q 82.92 -6.84 82.92 -9.73 L 82.92 -9.73 Q 82.92 -10.41 82.88 -11.1 Q 82.84 -11.78 82.84 -12.46 L 82.84 -12.46 Q 82.84 -13.3 82.88 -14.14 Q 82.92 -14.97 83.3 -15.81 L 83.3 -15.81 Q 83.45 -16.11 83.45 -16.42 L 83.45 -16.42 Q 83.45 -16.72 83.37 -16.95 Q 83.3 -17.18 83.3 -17.4 L 83.3 -17.4 Q 83.3 -20.22 84.02 -22.95 Q 84.74 -25.69 84.74 -28.12 L 84.74 -28.12 Q 84.66 -28.35 84.66 -28.8 L 84.66 -28.8 Q 84.66 -29.87 85.04 -31.08 Q 85.42 -32.3 85.42 -33.59 L 85.42 -33.59 Q 85.42 -34.66 85.84 -35.72 Q 86.26 -36.78 86.26 -37.85 L 86.26 -37.85 Q 86.49 -41.95 87.7 -46.47 Q 88.92 -51 89.98 -55.33 L 89.98 -55.33 Q 90.21 -56.32 90.67 -57.57 Q 91.12 -58.82 91.58 -60.15 Q 92.04 -61.48 92.34 -62.74 Q 92.64 -63.99 92.64 -65.06 L 92.64 -65.06 Q 92.64 -65.66 92.72 -66.54 Q 92.8 -67.41 93.78 -67.41 L 93.78 -67.41 Q 96.14 -67.41 97.28 -66.73 Q 98.42 -66.04 98.42 -64.07 L 98.42 -64.07 Q 98.42 -63.92 98.38 -63.76 Q 98.34 -63.61 98.34 -63.46 L 98.34 -63.46 Q 97.81 -60.88 97.17 -58.44 Q 96.52 -56.01 95.76 -53.5 L 95.76 -53.5 Q 95.68 -52.82 95.34 -51.95 Q 95 -51.07 94.66 -50.12 Q 94.32 -49.17 94.01 -48.26 Q 93.71 -47.35 93.71 -46.74 L 93.71 -46.74 Q 93.71 -46.44 93.78 -46.17 Q 93.86 -45.9 93.86 -45.6 L 93.86 -45.6 Q 93.86 -44.99 93.59 -44.27 Q 93.33 -43.55 92.99 -42.75 Q 92.64 -41.95 92.38 -41.15 Q 92.11 -40.36 92.11 -39.67 L 92.11 -39.67 Q 92.11 -39.14 92.26 -38.61 Q 92.42 -38.08 92.42 -37.54 L 92.42 -37.54 Q 92.42 -37.01 92.07 -36.56 Q 91.73 -36.1 91.73 -35.57 L 91.73 -35.57 Q 91.73 -35.26 91.81 -35.11 L 91.81 -35.11 Q 91.81 -34.43 91.28 -33.1 Q 90.74 -31.77 90.74 -29.64 L 90.74 -29.64 Q 90.74 -28.58 91.35 -28.5 L 91.35 -28.5 Q 91.88 -28.5 92.34 -28.8 Q 92.8 -29.11 93.21 -29.53 Q 93.63 -29.94 94.05 -30.36 Q 94.47 -30.78 94.92 -31.01 L 94.92 -31.01 Q 95.23 -31.16 95.72 -32 Q 96.22 -32.83 96.98 -33.29 L 96.98 -33.29 Q 98.04 -33.97 98.91 -34.62 Q 99.79 -35.26 100.78 -35.8 Q 101.76 -36.33 103.02 -36.67 Q 104.27 -37.01 106.17 -37.01 L 106.17 -37.01 Q 106.93 -37.01 108.07 -36.67 Q 109.21 -36.33 110.2 -35.49 Q 111.19 -34.66 111.91 -33.33 Q 112.63 -32 112.63 -30.1 L 112.63 -30.1 Q 112.63 -28.88 112.4 -27.4 Q 112.18 -25.92 112.18 -25.08 L 112.18 -25.08 Q 112.33 -24.32 112.33 -24.02 L 112.33 -24.02 Q 112.33 -23.33 112.25 -22.53 Q 112.18 -21.74 112.02 -20.98 Q 111.87 -20.22 111.68 -19.61 Q 111.49 -19 111.19 -18.77 L 111.19 -18.77 Q 110.73 -18.24 110.62 -17.44 Q 110.5 -16.64 110.39 -15.77 Q 110.28 -14.9 110.09 -14.14 Q 109.9 -13.38 109.44 -12.92 L 109.44 -12.92 Q 109.06 -12.54 108.87 -12.08 Q 108.68 -11.63 108.53 -11.1 Q 108.38 -10.56 108.15 -9.96 Q 107.92 -9.35 107.46 -8.66 L 107.46 -8.66 Q 106.78 -6.99 105.49 -5.51 Q 104.2 -4.03 102.56 -2.89 Q 100.93 -1.75 99.14 -1.1 Q 97.36 -0.46 95.61 -0.46 L 95.61 -0.46 Q 94.54 -0.46 93.56 -0.61 Q 92.57 -0.76 91.5 -0.76 L 91.5 -0.76 Q 90.9 -0.76 90.82 0 Q 90.74 0.76 90.74 1.37 L 90.74 1.37 Q 90.74 1.98 90.78 2.58 Q 90.82 3.19 90.9 3.8 L 90.9 3.8 Q 90.9 4.56 91.28 5.21 Q 91.66 5.85 91.66 6.54 L 91.66 6.54 Q 91.66 6.92 91.54 7.56 Q 91.43 8.21 91.35 8.36 Z M 92.19 -20.98 L 92.19 -20.98 Q 91.96 -19.76 91.92 -18.81 Q 91.88 -17.86 90.82 -17.1 L 90.82 -17.1 Q 90.44 -16.95 90.44 -15.88 Q 90.44 -14.82 90.36 -14.14 L 90.36 -14.14 Q 90.74 -13.38 90.74 -12.31 L 90.74 -12.31 Q 90.74 -11.63 90.55 -10.91 Q 90.36 -10.18 90.36 -9.5 L 90.36 -9.5 Q 90.36 -9.2 90.52 -8.89 L 90.52 -8.89 Q 90.82 -8.06 90.86 -7.33 Q 90.9 -6.61 91.09 -6.08 Q 91.28 -5.55 91.85 -5.21 Q 92.42 -4.86 93.86 -4.86 L 93.86 -4.86 Q 95.46 -4.86 97.32 -5.43 Q 99.18 -6 100.89 -7.11 Q 102.6 -8.21 103.93 -9.8 Q 105.26 -11.4 105.72 -13.38 L 105.72 -13.38 Q 105.72 -14.06 106.1 -14.63 Q 106.48 -15.2 106.48 -15.88 L 106.48 -15.88 Q 106.48 -16.42 106.4 -17.02 Q 106.32 -17.63 106.32 -18.24 L 106.32 -18.24 Q 106.32 -19.3 106.97 -20.18 Q 107.62 -21.05 107.62 -21.66 L 107.62 -21.66 Q 107.62 -22.12 107.43 -22.61 Q 107.24 -23.1 107.24 -23.64 L 107.24 -23.64 Q 107.24 -24.24 107.31 -24.81 Q 107.39 -25.38 107.39 -25.99 L 107.39 -25.99 Q 107.39 -26.83 107.27 -28.01 Q 107.16 -29.18 106.86 -30.29 Q 106.55 -31.39 106.1 -32.15 Q 105.64 -32.91 104.96 -32.91 L 104.96 -32.91 Q 104.58 -32.91 104.16 -32.68 Q 103.74 -32.45 103.36 -32.45 L 103.36 -32.45 Q 102.6 -32.45 102.14 -32.19 Q 101.69 -31.92 101.35 -31.54 Q 101 -31.16 100.66 -30.82 Q 100.32 -30.48 99.86 -30.4 L 99.86 -30.4 Q 99.56 -30.25 99.22 -29.68 Q 98.88 -29.11 98.46 -28.35 Q 98.04 -27.59 97.47 -26.79 Q 96.9 -25.99 96.14 -25.54 L 96.14 -25.54 Q 96.14 -25.46 95.76 -24.89 Q 95.38 -24.32 94.77 -23.6 Q 94.16 -22.88 93.48 -22.15 Q 92.8 -21.43 92.19 -20.98 Z M 117.95 -9.8 L 117.95 -12.08 Q 119.02 -12.31 119.09 -13.22 L 119.09 -13.22 Q 119.09 -15.12 119.7 -16.99 Q 120.31 -18.85 120.99 -20.6 L 120.99 -20.6 Q 121.68 -22.34 122.4 -24.36 Q 123.12 -26.37 125.1 -29.26 L 125.1 -29.26 Q 125.86 -30.4 126.54 -31.62 Q 127.22 -32.83 128.06 -33.82 Q 128.9 -34.81 130.15 -35.45 Q 131.4 -36.1 133.38 -36.1 L 133.38 -36.1 Q 136.04 -36.1 137.56 -35.04 Q 139.08 -33.97 140.37 -32.22 L 140.37 -32.22 Q 141.13 -32.6 141.78 -33.21 Q 142.42 -33.82 143.07 -34.43 Q 143.72 -35.04 144.4 -35.61 Q 145.08 -36.18 146 -36.56 L 146 -36.56 Q 146.98 -36.94 147.74 -37.66 Q 148.5 -38.38 149.95 -38.38 L 149.95 -38.38 Q 150.56 -38.38 151.28 -38.19 Q 152 -38 152.61 -37.51 Q 153.22 -37.01 153.6 -36.18 Q 153.98 -35.34 153.98 -33.97 L 153.98 -33.97 Q 153.98 -32.15 153.63 -30.13 Q 153.29 -28.12 152.87 -26.03 Q 152.46 -23.94 152.11 -21.81 Q 151.77 -19.68 151.77 -17.56 L 151.77 -17.56 Q 151.77 -16.72 151.16 -15.58 Q 150.56 -14.44 150.56 -13.22 L 150.56 -13.22 Q 150.56 -10.56 150.18 -7.79 Q 149.8 -5.02 149.8 -2.36 L 149.8 -2.36 Q 149.8 -1.44 149.83 -0.57 Q 149.87 0.3 149.87 1.14 L 149.87 1.14 Q 149.87 1.52 149.83 1.94 Q 149.8 2.36 149.8 2.74 L 149.8 2.74 Q 149.8 3.65 150.4 4.26 L 150.4 4.26 Q 150.25 4.86 150.25 5.24 L 150.25 5.24 Q 150.25 5.4 150.4 5.85 Q 150.56 6.31 150.71 6.84 Q 150.86 7.37 151.05 7.79 Q 151.24 8.21 151.32 8.21 L 151.32 8.21 Q 151.77 8.21 152.27 7.3 Q 152.76 6.38 153.18 5.17 Q 153.6 3.95 153.9 2.7 Q 154.2 1.44 154.2 0.84 L 154.2 0.84 Q 154.81 -1.37 155.42 -3.46 Q 156.03 -5.55 156.79 -7.6 L 156.79 -7.6 Q 156.86 -8.21 157.28 -8.44 Q 157.7 -8.66 157.85 -9.42 L 157.85 -9.42 Q 158.16 -10.49 158.27 -11.4 Q 158.38 -12.31 158.57 -13.15 Q 158.76 -13.98 159.14 -14.71 Q 159.52 -15.43 160.36 -16.19 L 160.36 -16.19 Q 160.59 -16.34 160.7 -16.64 Q 160.82 -16.95 160.89 -17.18 L 160.89 -17.18 Q 161.12 -17.94 161.58 -18.73 Q 162.03 -19.53 162.64 -20.18 Q 163.25 -20.82 163.93 -21.24 Q 164.62 -21.66 165.22 -21.66 L 165.22 -21.66 Q 165.6 -21.66 166.25 -21.39 Q 166.9 -21.13 166.9 -20.52 L 166.9 -20.52 Q 166.9 -20.29 166.74 -20.14 L 166.74 -20.14 Q 166.52 -19.84 165.79 -18.85 Q 165.07 -17.86 164.27 -16.68 Q 163.48 -15.5 162.83 -14.25 Q 162.18 -13 162.18 -12.08 L 162.18 -12.08 Q 161.96 -10.34 161.23 -8.78 Q 160.51 -7.22 160.13 -5.55 L 160.13 -5.55 Q 159.75 -3.95 159.37 -2.05 Q 158.99 -0.15 158.23 1.29 L 158.23 1.29 Q 157.85 1.9 157.93 2.7 Q 158 3.5 157.4 4.26 L 157.4 4.26 Q 156.94 5.09 156.86 6.73 Q 156.79 8.36 156.79 9.58 L 156.79 9.58 Q 156.64 10.79 155.99 11.59 Q 155.34 12.39 154.96 13.3 L 154.96 13.3 Q 154.51 14.36 153.37 14.52 Q 152.23 14.67 151.39 14.67 L 151.39 14.67 Q 149.95 14.67 149.11 13.91 Q 148.28 13.15 147.29 12.24 L 147.29 12.24 Q 146.68 11.7 146.72 11.13 Q 146.76 10.56 146.45 10.41 L 146.45 10.41 Q 145.62 9.65 145.54 8.7 Q 145.46 7.75 145.39 6.76 L 145.39 6.76 Q 145.39 6.16 145.43 5.62 Q 145.46 5.09 145.46 4.48 L 145.46 4.48 Q 145.46 3.5 144.89 3.04 Q 144.32 2.58 144.32 1.75 L 144.32 1.75 Q 144.32 -2.74 144.7 -8.02 Q 145.08 -13.3 145.39 -18.16 L 145.39 -18.16 Q 145.46 -19.3 146.03 -20.29 Q 146.6 -21.28 146.6 -21.89 L 146.6 -21.89 Q 146.53 -22.19 146.53 -22.5 Q 146.53 -22.8 146.53 -23.1 L 146.53 -23.1 Q 146.53 -25.08 146.6 -26.03 Q 146.68 -26.98 146.83 -27.44 Q 146.98 -27.89 147.17 -28.12 Q 147.36 -28.35 147.67 -28.88 L 147.67 -28.88 Q 147.67 -29.56 147.48 -30.17 Q 147.29 -30.78 147.21 -31.39 L 147.21 -31.39 Q 146.68 -31.24 146.26 -31.16 Q 145.84 -31.08 145.39 -31.01 L 145.39 -31.01 Q 144.93 -30.93 144.78 -30.59 Q 144.63 -30.25 144.51 -29.87 Q 144.4 -29.49 144.13 -29.18 Q 143.87 -28.88 143.18 -28.88 L 143.18 -28.88 Q 142.8 -27.97 142.5 -27.4 Q 142.2 -26.83 141.44 -26.45 L 141.44 -26.45 Q 141.36 -26.45 140.9 -26.07 Q 140.45 -25.69 139.92 -25.16 Q 139.38 -24.62 138.93 -24.09 Q 138.47 -23.56 138.4 -23.33 L 138.4 -23.33 Q 138.24 -22.65 138.17 -22.04 Q 138.09 -21.43 137.9 -20.98 Q 137.71 -20.52 137.37 -20.22 Q 137.03 -19.91 136.34 -19.68 L 136.34 -19.68 Q 136.12 -19.61 135.58 -18.62 Q 135.05 -17.63 134.37 -16.23 Q 133.68 -14.82 132.92 -13.26 Q 132.16 -11.7 131.63 -10.49 L 131.63 -10.49 Q 130.19 -7.9 129.39 -6.5 Q 128.59 -5.09 127.95 -4.41 Q 127.3 -3.72 126.54 -3.61 Q 125.78 -3.5 124.41 -3.5 L 124.41 -3.5 Q 122.51 -3.5 120.8 -4.71 Q 119.09 -5.93 119.09 -8.36 L 119.09 -8.36 Q 118.94 -8.74 118.98 -9.2 Q 119.02 -9.65 117.95 -9.8 L 117.95 -9.8 Z M 138.62 -30.7 L 138.62 -30.7 Q 138.24 -30.86 137.67 -31.01 Q 137.1 -31.16 136.72 -31.16 L 136.72 -31.16 Q 135.89 -31.16 135.13 -30.7 L 135.13 -30.7 Q 133.3 -29.49 131.78 -27.59 Q 130.26 -25.69 129.01 -23.48 Q 127.76 -21.28 126.92 -18.89 Q 126.08 -16.49 125.63 -14.36 L 125.63 -14.36 Q 125.63 -13.83 126.08 -13.83 L 126.08 -13.83 Q 126.16 -13.83 126.88 -14.71 Q 127.6 -15.58 128.48 -16.72 Q 129.35 -17.86 130.19 -19.04 Q 131.02 -20.22 131.4 -20.9 L 131.4 -20.9 Q 131.78 -21.51 132.28 -22.15 Q 132.77 -22.8 133.38 -23.33 L 133.38 -23.33 Q 134.6 -24.32 135.43 -25.61 Q 136.27 -26.9 137.56 -27.89 L 137.56 -27.89 Q 137.79 -28.35 138.09 -28.73 L 138.09 -28.73 Q 138.32 -29.11 138.51 -29.49 Q 138.7 -29.87 138.7 -30.17 L 138.7 -30.17 Q 138.7 -30.32 138.66 -30.44 Q 138.62 -30.55 138.62 -30.7 Z M 169.18 -21.51 L 169.18 -21.51 Q 169.1 -22.5 168.72 -22.5 L 168.72 -22.5 Q 168.57 -22.5 168.42 -22.46 Q 168.26 -22.42 168.04 -22.42 L 168.04 -22.42 Q 167.81 -22.42 167.58 -22.88 Q 167.35 -23.33 167.2 -23.94 Q 167.05 -24.55 166.97 -25.16 Q 166.9 -25.76 166.9 -26.14 L 166.9 -26.14 Q 166.97 -26.14 167.05 -26.22 L 167.05 -26.22 Q 167.05 -26.14 166.97 -26.07 L 166.97 -26.07 Q 166.97 -26.07 167.05 -26.22 L 167.05 -26.22 Q 166.52 -25.69 166.21 -25.35 Q 165.91 -25 165.91 -24.55 L 165.91 -24.55 Q 165.91 -24.09 166.44 -23.45 Q 166.97 -22.8 166.97 -22.27 L 166.97 -22.27 Q 166.97 -22.04 166.4 -21.39 Q 165.83 -20.75 165.83 -19.68 L 165.83 -19.68 Q 165.83 -19.3 165.87 -18.89 Q 165.91 -18.47 165.91 -18.09 L 165.91 -18.09 Q 165.91 -17.56 165.79 -17.14 Q 165.68 -16.72 165.22 -16.49 L 165.22 -16.49 L 165.22 -16.42 Q 165.22 -16.87 165.03 -17.02 Q 164.84 -17.18 164.58 -17.25 Q 164.31 -17.33 164.12 -17.4 Q 163.93 -17.48 163.93 -17.71 L 163.93 -17.71 Q 163.93 -18.09 164.46 -18.28 Q 165 -18.47 165 -18.92 L 165 -18.92 Q 165 -19.3 164.62 -19.61 Q 164.24 -19.91 164.24 -20.14 L 164.24 -20.14 Q 164.24 -20.29 164.27 -20.44 Q 164.31 -20.6 164.31 -20.75 L 164.31 -20.75 Q 164.31 -21.36 164.2 -21.89 Q 164.08 -22.42 164.08 -23.03 L 164.08 -23.03 Q 164.08 -23.41 164.2 -23.86 Q 164.31 -24.32 164.31 -24.78 L 164.31 -24.78 Q 164.31 -25.08 164.27 -25.42 Q 164.24 -25.76 164.24 -26.14 L 164.24 -26.14 Q 164.24 -27.21 164.43 -28.31 Q 164.62 -29.41 165.22 -30.48 L 165.22 -30.48 Q 165.38 -30.78 165.38 -31.08 L 165.38 -31.08 Q 165.38 -31.46 165.15 -31.73 Q 164.92 -32 164.92 -32.38 L 164.92 -32.38 Q 164.92 -32.6 164.96 -32.83 Q 165 -33.06 165 -33.29 L 165 -33.29 Q 165 -34.12 164.08 -34.12 L 164.08 -34.12 Q 163.7 -34.12 163.59 -33.97 Q 163.48 -33.82 163.32 -33.67 L 163.32 -33.67 Q 162.49 -33.67 161.88 -33.33 Q 161.27 -32.98 160.63 -32.57 Q 159.98 -32.15 159.07 -31.81 Q 158.16 -31.46 156.71 -31.46 L 156.71 -31.46 Q 156.41 -31.46 155.57 -31.62 Q 154.74 -31.77 153.9 -32.11 Q 153.06 -32.45 152.38 -33.02 Q 151.7 -33.59 151.7 -34.43 L 151.7 -34.43 Q 151.7 -34.73 152.04 -34.92 Q 152.38 -35.11 152.87 -35.19 Q 153.37 -35.26 153.86 -35.3 Q 154.36 -35.34 154.74 -35.42 L 154.74 -35.42 Q 155.95 -35.64 157.09 -36.37 Q 158.23 -37.09 158.84 -37.09 L 158.84 -37.09 Q 158.92 -37.09 159.37 -37.43 Q 159.83 -37.77 160.51 -38.23 Q 161.2 -38.68 162.15 -39.1 Q 163.1 -39.52 164.24 -39.67 L 164.24 -39.67 Q 165 -39.82 165.41 -40.74 Q 165.83 -41.65 166.06 -42.9 Q 166.29 -44.16 166.36 -45.52 Q 166.44 -46.89 166.44 -47.96 L 166.44 -47.96 Q 166.44 -48.49 166.4 -48.98 Q 166.36 -49.48 166.29 -50.01 L 166.29 -50.01 Q 166.97 -51.3 167.66 -52.1 Q 168.34 -52.9 169.86 -52.9 L 169.86 -52.9 Q 171.76 -52.9 172.37 -51.6 Q 172.98 -50.31 172.98 -47.88 L 172.98 -47.88 Q 172.98 -47.04 172.86 -46.36 Q 172.75 -45.68 172.37 -45.45 L 172.37 -45.45 Q 172.44 -45.52 172.6 -45.52 L 172.6 -45.52 Q 172.6 -45.52 172.52 -45.37 L 172.52 -45.37 Q 172.52 -45.45 172.48 -45.49 Q 172.44 -45.52 172.44 -45.6 L 172.44 -45.6 Q 172.98 -45.22 173.05 -44.65 Q 173.13 -44.08 173.74 -43.85 L 173.74 -43.85 Q 174.65 -44.23 176.51 -44.99 Q 178.37 -45.75 180.12 -45.75 L 180.12 -45.75 Q 180.5 -45.75 180.96 -46.06 Q 181.41 -46.36 181.87 -46.7 Q 182.32 -47.04 182.74 -47.35 Q 183.16 -47.65 183.54 -47.65 L 183.54 -47.65 Q 183.92 -47.65 184.19 -47.16 Q 184.45 -46.66 184.83 -46.66 L 184.83 -46.66 Q 185.06 -46.66 185.21 -46.89 Q 185.36 -47.12 185.48 -47.35 Q 185.59 -47.58 185.82 -47.8 Q 186.05 -48.03 186.43 -48.03 L 186.43 -48.03 Q 187.57 -48.03 188.02 -47.58 Q 188.48 -47.12 188.63 -46.55 Q 188.78 -45.98 188.82 -45.52 Q 188.86 -45.07 189.16 -45.07 L 189.16 -45.07 Q 189.32 -45.07 189.47 -45.3 L 189.47 -45.3 Q 189.7 -44.84 189.7 -44.54 L 189.7 -44.54 Q 189.7 -44.31 189.47 -44 Q 189.24 -43.7 188.94 -43.4 Q 188.63 -43.09 188.33 -42.86 Q 188.02 -42.64 187.95 -42.64 L 187.95 -42.64 Q 187.8 -42.64 187.34 -42.86 Q 186.88 -43.09 186.58 -43.09 L 186.58 -43.09 Q 186.35 -43.09 186.01 -42.83 Q 185.67 -42.56 185.29 -42.56 L 185.29 -42.56 Q 185.14 -42.56 184.91 -42.6 Q 184.68 -42.64 184.53 -42.64 L 184.53 -42.64 Q 184 -42.64 183.69 -42.41 L 183.69 -42.41 Q 181.87 -41.27 180.39 -41 Q 178.9 -40.74 177 -40.36 L 177 -40.36 Q 177 -40.36 176.24 -39.94 Q 175.48 -39.52 174.46 -38.95 Q 173.43 -38.38 172.56 -37.73 Q 171.68 -37.09 171.46 -36.63 L 171.46 -36.63 Q 171.53 -36.48 171.53 -36.1 L 171.53 -36.1 Q 171.53 -35.72 171.34 -35.3 Q 171.15 -34.88 171.15 -34.5 L 171.15 -34.5 Q 171.15 -34.28 171.23 -34.2 L 171.23 -34.2 Q 171.08 -32.76 170.92 -31.39 Q 170.77 -30.02 170.62 -28.58 L 170.62 -28.58 Q 170.62 -27.74 170.13 -27.02 Q 169.63 -26.3 169.63 -25.46 L 169.63 -25.46 Q 169.63 -24.09 169.52 -23.41 Q 169.4 -22.72 169.18 -21.51 Z M 167.35 -28.12 L 167.35 -28.12 Q 167.35 -28.2 167.39 -28.23 Q 167.43 -28.27 167.43 -28.35 L 167.43 -28.35 Q 167.43 -28.42 167.28 -28.42 L 167.28 -28.42 Q 167.2 -28.42 167.2 -28.2 L 167.2 -28.2 Q 167.2 -28.2 167.35 -28.12 Z M 167.73 -31.46 L 167.73 -31.46 Q 167.73 -31.46 167.66 -31.31 L 167.66 -31.31 Q 167.66 -31.08 167.81 -31.08 L 167.81 -31.08 L 167.96 -31.24 Q 167.96 -31.46 167.73 -31.46 Z M 167.73 -17.71 L 167.66 -17.63 Q 167.81 -17.48 168.04 -17.48 L 168.04 -17.48 Q 168.34 -17.48 168.57 -17.56 Q 168.8 -17.63 169.1 -17.63 L 169.1 -17.63 Q 168.87 -16.87 168.57 -16.3 Q 168.26 -15.73 168.26 -15.05 L 168.26 -15.05 Q 168.26 -14.74 168.34 -14.44 Q 168.42 -14.14 168.42 -13.83 L 168.42 -13.83 Q 168.42 -11.17 168.07 -8.74 Q 167.73 -6.31 167.73 -3.8 L 167.73 -3.8 Q 167.73 -3.19 168.15 -2.81 Q 168.57 -2.43 168.57 -1.82 L 168.57 -1.82 Q 168.57 -1.44 168.11 -1.14 Q 167.66 -0.84 167.66 -0.23 L 167.66 -0.23 Q 167.66 -0.08 167.73 0.3 Q 167.81 0.68 168.04 0.84 L 168.04 0.84 Q 168.64 1.22 168.68 1.9 Q 168.72 2.58 168.72 3.34 Q 168.72 4.1 168.91 4.64 Q 169.1 5.17 170.01 5.17 L 170.01 5.17 Q 170.47 5.17 171.11 4.45 Q 171.76 3.72 172.48 2.7 Q 173.2 1.67 173.85 0.57 Q 174.5 -0.53 174.95 -1.37 L 174.95 -1.37 Q 176.24 -3.8 177.8 -5.93 Q 179.36 -8.06 180.96 -10.34 L 180.96 -10.34 Q 181.11 -9.88 181.18 -9.61 Q 181.26 -9.35 181.26 -9.12 L 181.26 -9.12 Q 181.26 -8.74 181.03 -8.4 Q 180.8 -8.06 180.2 -7.45 L 180.2 -7.45 Q 179.97 -6.08 179.97 -4.71 L 179.97 -4.71 Q 179.97 -3.42 180.2 -2.13 Q 180.42 -0.84 180.42 0.3 L 180.42 0.3 Q 180.42 1.22 180.16 1.75 Q 179.89 2.28 179.55 2.58 Q 179.21 2.89 178.87 3.19 Q 178.52 3.5 178.45 3.95 L 178.45 3.95 Q 178.37 4.41 178.41 5.17 Q 178.45 5.93 178.14 5.93 L 178.14 5.93 Q 177.99 5.93 177.84 5.81 Q 177.69 5.7 177.61 5.7 L 177.61 5.7 Q 176.7 5.7 176.47 5.85 Q 176.24 6 176.09 6.84 L 176.09 6.84 Q 176.09 7.45 175.6 7.6 Q 175.1 7.75 174.95 8.36 L 174.95 8.36 Q 174.95 8.51 174.57 8.89 Q 174.19 9.27 173.77 9.65 Q 173.36 10.03 172.98 10.37 Q 172.6 10.72 172.52 10.72 L 172.52 10.72 Q 172.37 10.72 172.29 10.68 Q 172.22 10.64 172.06 10.64 L 172.06 10.64 Q 171.91 10.64 171.65 10.72 Q 171.38 10.79 171.38 10.94 L 171.38 10.94 Q 171.23 11.4 170.81 11.67 Q 170.39 11.93 169.94 12.08 Q 169.48 12.24 169.06 12.31 Q 168.64 12.39 168.42 12.39 L 168.42 12.39 Q 166.9 12.39 165.76 11.36 Q 164.62 10.34 164.62 9.65 L 164.62 9.65 Q 164.62 9.35 164.69 9.12 L 164.69 9.12 Q 164.69 8.51 164.43 7.9 Q 164.16 7.3 163.82 6.65 Q 163.48 6 163.21 5.43 Q 162.94 4.86 162.94 4.41 L 162.94 4.41 Q 162.94 4.26 162.98 4.03 Q 163.02 3.8 163.02 3.65 L 163.02 3.65 Q 163.02 3.57 162.87 3.15 Q 162.72 2.74 162.56 2.2 Q 162.41 1.67 162.26 1.18 Q 162.11 0.68 162.11 0.3 L 162.11 0.3 Q 162.11 0.23 162.37 -0.27 Q 162.64 -0.76 162.94 -1.37 Q 163.25 -1.98 163.51 -2.66 Q 163.78 -3.34 163.78 -3.88 L 163.78 -3.88 Q 163.78 -4.1 163.74 -4.33 Q 163.7 -4.56 163.7 -4.79 L 163.7 -4.79 Q 163.7 -5.62 164.2 -6.27 Q 164.69 -6.92 164.69 -7.52 L 164.69 -7.52 Q 164.54 -7.68 164.46 -7.87 Q 164.39 -8.06 164.16 -8.06 L 164.16 -8.06 Q 163.93 -8.06 163.74 -7.68 Q 163.55 -7.3 163.36 -6.88 Q 163.17 -6.46 162.98 -6.08 Q 162.79 -5.7 162.56 -5.7 L 162.56 -5.7 Q 162.41 -5.7 162.22 -5.85 Q 162.03 -6 162.03 -6.16 L 162.03 -6.16 Q 162.26 -6.54 162.37 -7.14 Q 162.49 -7.75 162.6 -8.32 Q 162.72 -8.89 162.87 -9.31 Q 163.02 -9.73 163.32 -9.73 L 163.32 -9.73 Q 163.55 -9.73 163.78 -9.46 Q 164.01 -9.2 164.39 -9.2 L 164.39 -9.2 Q 164.62 -9.2 165 -9.54 Q 165.38 -9.88 165.38 -10.41 L 165.38 -10.41 Q 165.38 -10.79 164.62 -11.1 L 164.62 -11.1 L 164.54 -11.1 Q 165.07 -11.86 165.07 -12.77 L 165.07 -12.77 Q 165.07 -13 165.03 -13.19 Q 165 -13.38 165 -13.6 L 165 -13.6 Q 165 -13.83 165.03 -14.06 Q 165.07 -14.29 165.38 -14.44 L 165.38 -14.44 Q 165.53 -14.44 165.6 -13.95 Q 165.68 -13.45 165.68 -12.62 L 165.68 -12.62 Q 165.68 -12.16 165.64 -11.67 Q 165.6 -11.17 165.6 -10.56 L 165.6 -10.56 Q 165.6 -9.12 165.79 -7.94 Q 165.98 -6.76 166.59 -6.76 L 166.59 -6.76 Q 166.74 -6.76 166.9 -7.14 Q 167.05 -7.52 167.05 -7.75 L 167.05 -7.75 Q 167.05 -7.9 167.01 -8.02 Q 166.97 -8.13 166.97 -8.28 L 166.97 -8.28 Q 166.97 -8.89 167.24 -9.35 Q 167.5 -9.8 167.5 -10.34 L 167.5 -10.34 Q 167.5 -10.94 167.12 -11.44 Q 166.74 -11.93 166.74 -12.31 L 166.74 -12.31 Q 166.74 -12.54 167.2 -13.26 Q 167.66 -13.98 167.66 -14.74 L 167.66 -14.74 Q 167.66 -14.97 167.58 -15.2 Q 167.5 -15.43 167.5 -15.66 L 167.5 -15.66 Q 167.5 -16.19 167.62 -16.68 Q 167.73 -17.18 167.73 -17.71 L 167.73 -17.71 Z M 165.91 -3.72 L 165.68 -2.36 Q 165.68 -2.13 165.83 -2.13 L 165.83 -2.13 Q 166.52 -2.13 166.78 -2.85 Q 167.05 -3.57 167.05 -4.03 L 167.05 -4.03 Q 167.05 -4.33 166.93 -4.94 Q 166.82 -5.55 166.59 -5.55 L 166.59 -5.55 Q 165.98 -5.24 165.98 -4.75 Q 165.98 -4.26 165.91 -3.72 L 165.91 -3.72 Z M 177.08 4.33 L 177.08 4.33 Q 177.46 4.33 177.54 4.29 Q 177.61 4.26 177.61 3.8 L 177.61 3.8 Q 177.61 3.19 176.93 3.19 L 176.93 3.19 Q 176.55 3.19 176.32 3.72 L 176.32 3.72 Q 176.32 4.18 176.59 4.18 Q 176.85 4.18 177.08 4.33 Z M 177.76 1.22 L 177.76 1.22 Q 177.61 1.06 177.42 0.87 Q 177.23 0.68 177.08 0.68 L 177.08 0.68 Q 176.7 0.68 176.7 1.22 L 176.7 1.22 Q 176.7 1.37 177.16 1.67 L 177.16 1.67 Q 177.46 1.67 177.76 1.22 Z M 179.51 -3.19 L 179.51 -3.19 Q 179.51 -3.72 179.36 -3.72 L 179.36 -3.72 Q 179.13 -3.72 179.13 -3.5 L 179.13 -3.5 Q 179.13 -3.12 179.36 -3.12 L 179.36 -3.12 Q 179.44 -3.12 179.44 -3.15 Q 179.44 -3.19 179.51 -3.19 Z M 175.48 5.93 L 175.48 5.93 Q 175.48 5.85 175.33 5.7 L 175.33 5.7 Q 175.26 5.7 175.1 5.85 L 175.1 5.85 Q 175.1 6 175.1 6.16 Q 175.1 6.31 175.26 6.31 L 175.26 6.31 Q 175.48 6.31 175.48 5.93 Z M 177.61 -2.2 L 177.38 -1.75 Q 177.54 -1.6 177.54 -1.6 L 177.54 -1.6 Q 177.61 -1.75 177.65 -1.79 Q 177.69 -1.82 177.76 -1.98 L 177.76 -1.98 Q 177.76 -2.05 177.69 -2.09 Q 177.61 -2.13 177.61 -2.2 L 177.61 -2.2 Z M 169.18 -21.51 L 169.1 -21.58 Q 169.48 -20.82 169.48 -20.37 L 169.48 -20.37 Q 169.48 -19.84 169.18 -19.49 Q 168.87 -19.15 168.53 -18.89 Q 168.19 -18.62 167.92 -18.32 Q 167.66 -18.01 167.66 -17.63 L 167.66 -17.63 L 167.73 -17.71 Q 167.5 -17.56 167.28 -17.37 Q 167.05 -17.18 166.9 -17.18 L 166.9 -17.18 Q 166.44 -17.18 166.44 -17.56 L 166.44 -17.56 Q 166.44 -18.24 166.44 -18.92 Q 166.44 -19.61 166.74 -20.22 L 166.74 -20.22 Q 166.9 -19.99 167.09 -19.87 Q 167.28 -19.76 167.43 -19.61 L 167.43 -19.61 Q 167.66 -20.9 168.04 -21.09 Q 168.42 -21.28 169.18 -21.51 L 169.18 -21.51 Z M 184.38 -16.57 L 184.38 -16.57 Q 184.83 -16.87 185.1 -17.37 Q 185.36 -17.86 185.67 -18.35 Q 185.97 -18.85 186.28 -19.19 Q 186.58 -19.53 187.19 -19.53 L 187.19 -19.53 Q 187.49 -19.53 187.49 -19.3 L 187.49 -19.3 Q 187.49 -18.39 187 -17.14 Q 186.5 -15.88 185.67 -15.88 L 185.67 -15.88 Q 185.29 -15.88 184.98 -16.15 Q 184.68 -16.42 184.38 -16.57 Z M 201.25 -31.77 L 201.25 -31.77 Q 201.02 -31.77 200.79 -31.88 Q 200.56 -32 200.56 -32.38 L 200.56 -32.38 Q 200.56 -33.21 201.29 -33.71 Q 202.01 -34.2 202.84 -34.28 L 202.84 -34.28 Q 202.92 -34.28 203.07 -34.2 Q 203.22 -34.12 203.22 -33.97 L 203.22 -33.97 Q 203.22 -32.68 202.84 -32.41 Q 202.46 -32.15 201.25 -31.77 Z M 190.84 -22.8 L 190.84 -22.8 Q 190.53 -23.1 190.53 -23.56 L 190.53 -23.56 Q 190.53 -23.79 190.76 -24.17 Q 190.99 -24.55 191.37 -24.55 L 191.37 -24.55 Q 191.9 -24.55 191.9 -24.02 L 191.9 -24.02 Q 191.9 -23.79 191.48 -23.29 Q 191.06 -22.8 190.84 -22.8 Z M 163.17 -14.06 L 163.17 -14.06 Q 163.32 -13.68 163.48 -13.53 Q 163.63 -13.38 163.63 -13.07 L 163.63 -13.07 Q 163.63 -12.77 163.4 -12.69 L 163.4 -12.69 Q 163.17 -12.69 163.17 -13.03 Q 163.17 -13.38 163.17 -14.06 Z M 188.94 -20.75 L 188.48 -20.52 Q 188.33 -20.82 188.33 -20.98 L 188.33 -20.98 Q 188.4 -21.2 188.63 -21.2 L 188.63 -21.2 Q 189.01 -21.2 189.01 -20.98 L 189.01 -20.98 Q 189.01 -20.82 188.94 -20.75 L 188.94 -20.75 Z M 182.7 -12.24 L 182.7 -12.24 Q 183.31 -12.24 183.31 -11.93 L 183.31 -11.93 Q 183.31 -11.55 182.78 -11.55 L 182.78 -11.55 Q 182.17 -11.55 182.17 -11.86 L 182.17 -11.86 Q 182.17 -12.24 182.7 -12.24 Z M 196.16 -29.11 L 196.16 -29.11 Q 196.08 -29.26 196 -29.34 Q 195.93 -29.41 195.93 -29.49 L 195.93 -29.49 Q 195.93 -29.87 196.31 -29.87 L 196.31 -29.87 Q 196.61 -29.87 196.61 -29.49 L 196.61 -29.49 Q 196.61 -29.34 196.54 -29.18 Q 196.46 -29.03 196.31 -29.03 L 196.31 -29.03 Q 196.23 -29.03 196.23 -29.07 Q 196.23 -29.11 196.16 -29.11 Z M 194.33 -27.82 L 194.33 -27.82 Q 194.71 -28.2 194.86 -28.2 L 194.86 -28.2 Q 195.17 -28.2 195.4 -27.89 L 195.4 -27.89 Q 195.4 -27.59 195.09 -27.59 L 195.09 -27.59 Q 194.94 -27.59 194.71 -27.7 Q 194.48 -27.82 194.33 -27.82 Z M 194.33 -27.82 L 194.26 -27.97 Q 194.18 -27.74 194.1 -27.36 Q 194.03 -26.98 193.8 -26.98 L 193.8 -26.98 Q 193.57 -26.98 193.57 -27.13 L 193.57 -27.13 Q 193.57 -27.28 193.84 -27.47 Q 194.1 -27.66 194.33 -27.82 L 194.33 -27.82 Z M 182.25 -9.2 L 182.25 -9.2 Q 182.25 -9.2 182.1 -9.04 L 182.1 -9.04 Q 182.1 -9.12 182.06 -9.16 Q 182.02 -9.2 182.02 -9.27 L 182.02 -9.27 Q 182.02 -9.35 182.1 -9.35 Q 182.17 -9.35 182.17 -9.42 L 182.17 -9.42 Q 182.25 -9.35 182.25 -9.2 Z M 164.62 -15.66 L 164.62 -15.66 Q 164.62 -15.12 164.16 -15.12 L 164.16 -15.12 Q 164.08 -15.12 164.01 -15.24 Q 163.93 -15.35 163.78 -15.43 L 163.78 -15.43 Q 163.93 -15.58 164.2 -15.58 Q 164.46 -15.58 164.62 -15.66 Z M 165.22 -16.49 L 165.22 -16.49 Q 165.15 -16.19 165 -16 Q 164.84 -15.81 164.69 -15.58 L 164.69 -15.58 L 164.62 -15.66 Q 164.77 -15.88 164.92 -16.07 Q 165.07 -16.26 165.22 -16.49 Z M 164.54 -11.02 L 164.62 -11.1 L 164.54 -11.1 L 164.69 -11.1 Q 164.62 -11.02 164.54 -11.02 L 164.54 -11.02 Z M 193.88 -26.83 L 193.88 -26.83 Q 194.48 -27.51 194.98 -28.27 Q 195.47 -29.03 195.78 -29.94 L 195.78 -29.94 Q 196 -30.7 196.57 -31.27 Q 197.14 -31.84 197.75 -32.34 Q 198.36 -32.83 198.85 -33.33 Q 199.35 -33.82 199.58 -34.43 L 199.58 -34.43 Q 200.41 -35.26 201.25 -36.25 Q 202.08 -37.24 203.38 -37.77 L 203.38 -37.77 Q 204.14 -38.08 204.67 -38.68 Q 205.2 -39.29 206.11 -39.29 L 206.11 -39.29 Q 207.56 -39.29 209.38 -38.76 Q 211.2 -38.23 212.8 -37.32 Q 214.4 -36.4 215.46 -35.11 Q 216.52 -33.82 216.52 -32.3 L 216.52 -32.3 Q 216.52 -32.15 216.49 -31.92 Q 216.45 -31.69 216.45 -31.54 L 216.45 -31.54 Q 216.45 -31.16 216.49 -30.82 Q 216.52 -30.48 216.52 -30.1 L 216.52 -30.1 Q 216.52 -28.65 215.46 -27.89 L 215.46 -27.89 Q 214.85 -27.59 214.55 -26.87 Q 214.24 -26.14 213.79 -25.61 L 213.79 -25.61 Q 213.41 -25.23 213.03 -24.85 Q 212.65 -24.47 212.34 -23.86 L 212.34 -23.86 Q 212.04 -23.26 211.13 -22.31 Q 210.22 -21.36 208.92 -20.48 Q 207.63 -19.61 206.07 -18.96 Q 204.52 -18.32 202.92 -18.32 L 202.92 -18.32 Q 202.08 -18.32 201.32 -18.47 Q 200.56 -18.62 199.73 -18.62 L 199.73 -18.62 Q 198.66 -18.62 198.44 -17.4 Q 198.21 -16.19 198.21 -15.28 L 198.21 -15.28 Q 198.21 -13.98 198.28 -12.31 Q 198.36 -10.64 198.66 -9.12 Q 198.97 -7.6 199.54 -6.54 Q 200.11 -5.47 201.17 -5.47 L 201.17 -5.47 Q 202.01 -5.47 202.96 -6 Q 203.91 -6.54 204.52 -7.07 L 204.52 -7.07 Q 207.63 -9.58 210.63 -12.01 Q 213.64 -14.44 216.6 -17.1 L 216.6 -17.1 Q 216.9 -17.4 217.63 -18.13 Q 218.35 -18.85 219.22 -19.61 Q 220.1 -20.37 221.08 -20.94 Q 222.07 -21.51 222.98 -21.51 L 222.98 -21.51 Q 223.36 -21.51 223.78 -21.32 Q 224.2 -21.13 224.2 -20.67 L 224.2 -20.67 Q 224.2 -20.29 223.82 -19.95 Q 223.44 -19.61 222.95 -19.3 Q 222.45 -19 221.96 -18.73 Q 221.46 -18.47 221.16 -18.24 L 221.16 -18.24 Q 219.94 -17.25 219.11 -16.42 L 219.11 -16.42 Q 218.27 -15.66 217.66 -15.01 Q 217.06 -14.36 217.06 -14.06 L 217.06 -14.06 Q 217.06 -13.6 216.75 -12.92 Q 216.45 -12.24 215.84 -12.24 L 215.84 -12.24 Q 215 -11.86 214.4 -11.1 Q 213.79 -10.34 213.26 -9.54 Q 212.72 -8.74 212.23 -8.09 Q 211.74 -7.45 211.28 -7.3 L 211.28 -7.3 Q 210.82 -7.14 209.76 -6.08 Q 208.7 -5.02 207.52 -3.8 Q 206.34 -2.58 205.28 -1.63 Q 204.21 -0.68 203.76 -0.68 L 203.76 -0.68 Q 203.3 -0.68 203 -0.91 L 203 -0.91 Q 202.62 -0.68 202.27 -0.46 Q 201.93 -0.23 201.55 0 L 201.55 0 Q 199.35 -0.23 197.75 -0.53 Q 196.16 -0.84 194.94 -2.58 L 194.94 -2.58 Q 194.64 -3.27 194.26 -3.5 L 194.26 -3.5 Q 193.8 -3.72 193.38 -4.29 Q 192.96 -4.86 192.66 -5.43 Q 192.36 -6 192.2 -6.5 Q 192.05 -6.99 192.05 -7.07 L 192.05 -7.07 Q 192.05 -7.3 192.13 -7.56 Q 192.2 -7.83 192.2 -8.13 L 192.2 -8.13 Q 192.2 -8.66 191.79 -9.12 Q 191.37 -9.58 191.37 -10.03 L 191.37 -10.03 Q 191.37 -10.18 191.48 -10.41 Q 191.6 -10.64 191.6 -10.87 L 191.6 -10.87 Q 191.6 -11.25 191.44 -11.59 Q 191.29 -11.93 191.29 -12.31 L 191.29 -12.31 Q 191.29 -12.62 191.48 -12.92 Q 191.67 -13.22 191.67 -13.53 L 191.67 -13.53 Q 191.67 -13.91 191.41 -14.36 Q 191.14 -14.82 191.14 -15.28 L 191.14 -15.28 Q 191.14 -15.81 191.14 -16.68 Q 191.14 -17.56 191.22 -18.47 Q 191.29 -19.38 191.48 -20.22 Q 191.67 -21.05 192.05 -21.51 L 192.05 -21.51 Q 192.81 -22.5 192.96 -24.05 Q 193.12 -25.61 193.95 -26.83 L 193.95 -26.83 Q 193.65 -26.37 193.65 -25.99 L 193.65 -25.99 Q 193.65 -25.76 193.8 -25.61 L 193.8 -25.61 Q 193.88 -25.69 193.95 -25.69 Q 194.03 -25.69 194.03 -25.92 L 194.03 -25.92 Q 194.03 -26.22 193.88 -26.83 Z M 201.1 -23.03 L 201.1 -23.03 Q 202.08 -23.18 203.68 -23.67 Q 205.28 -24.17 206.76 -25.04 Q 208.24 -25.92 209.3 -27.25 Q 210.37 -28.58 210.37 -30.4 L 210.37 -30.4 Q 210.37 -31.39 210.03 -32.6 Q 209.68 -33.82 208.54 -33.82 L 208.54 -33.82 Q 206.64 -33.82 205.01 -32.53 Q 203.38 -31.24 202.16 -29.53 Q 200.94 -27.82 200.22 -26.14 Q 199.5 -24.47 199.5 -23.71 L 199.5 -23.71 Q 199.5 -23.33 199.84 -23.26 Q 200.18 -23.18 201.1 -23.03 Z" fill="#000000"/>
</svg>